<svg width="1127" height="819" viewBox="0 0 1127 819" fill="none" xmlns="http://www.w3.org/2000/svg">
<path d="M210.095 165L112.697 266.425V731.214L225.804 775.312L225.804 810.59L414.945 815L465.843 731.214H566.445H664.409L717.821 815H916.387V775.312L1014.41 731.214V266.425L916.387 165L566.445 309L210.095 165Z" stroke="#FEA97D" stroke-width="6"/>
<path d="M210.095 165L112.697 266.425V731.214L225.804 775.312L225.804 810.59L414.945 815L465.843 731.214H566.445H664.409L717.821 815H916.387V775.312L1014.41 731.214V266.425L916.387 165L566.445 309L210.095 165Z" stroke="#FEA97D" stroke-width="6"/>
<path d="M210.095 165L112.697 266.425V731.214L225.804 775.312L225.804 810.59L414.945 815L465.843 731.214H566.445H664.409L717.821 815H916.387V775.312L1014.41 731.214V266.425L916.387 165L566.445 309L210.095 165Z" stroke="#FEA97D" stroke-width="6"/>
<path d="M3.98779 335.835L56.9731 335.707M3.98779 335.835L4.67011 639.682L34.2653 734.192L88.2139 734.061L57.6554 639.554L56.9731 335.707M3.98779 335.835L33.2187 268.141L87.1674 268.01M56.9731 335.707L87.1674 268.01M87.1674 268.01L92.5491 734.051" stroke="#64B4ED" stroke-width="6"/>
<path d="M1123.2 335.835L1070.22 335.707M1123.2 335.835L1122.52 639.682L1092.93 734.192L1038.98 734.061L1069.54 639.554L1070.22 335.707M1123.2 335.835L1093.97 268.141L1040.03 268.01M1070.22 335.707L1040.03 268.01M1040.03 268.01L1034.64 734.051" stroke="#64B4ED" stroke-width="6"/>
<path d="M368.425 5L393.272 38.2123L376.976 128.817L360.679 219.421M368.425 5L214.546 160.342L335.878 209.813L360.679 219.421M368.425 5L381.996 23.14L411.371 62.4041L392.075 232L360.679 219.421" stroke="#2E697D" stroke-width="6"/>
<path d="M760.052 6L735.205 39.2123L751.223 129.593L767.241 219.973M760.052 6L912.229 160.338L791.985 210.317L767.241 219.973M760.052 6L746.481 24.14L717.106 63.4041L736.48 232.5L767.241 219.973" stroke="#2E697D" stroke-width="6"/>
</svg>
